<?xml version="1.0" standalone="no"?>
<!DOCTYPE svg PUBLIC "-//W3C//DTD SVG 20010904//EN"
 "http://www.w3.org/TR/2001/REC-SVG-20010904/DTD/svg10.dtd">
<svg version="1.0" xmlns="http://www.w3.org/2000/svg"
 width="1000.000000pt" height="1000.000000pt" viewBox="0 0 1000.000000 1000.000000"
 preserveAspectRatio="xMidYMid meet">
<metadata>
Created by potrace 1.14, written by Peter Selinger 2001-2017
</metadata>
<g transform="translate(0.000000,1000.000000) scale(0.100000,-0.100000)"
fill="#000000" stroke="none">
<path d="M4830 9814 c-102 -17 -114 -20 -181 -43 -52 -18 -193 -84 -244 -114
-11 -7 -47 -27 -80 -46 -33 -19 -139 -80 -235 -136 -96 -56 -202 -116 -235
-135 -33 -18 -67 -39 -76 -46 -8 -8 -18 -14 -22 -14 -5 0 -337 -190 -367 -210
-8 -6 -27 -15 -42 -21 -16 -6 -28 -15 -28 -20 0 -5 -4 -9 -10 -9 -5 0 -31 -13
-58 -29 -26 -15 -68 -39 -93 -53 -24 -14 -100 -58 -169 -98 -69 -40 -228 -132
-355 -205 -126 -73 -244 -141 -262 -151 -227 -132 -640 -370 -648 -373 -5 -2
-17 -9 -25 -16 -8 -7 -37 -25 -65 -39 -27 -15 -57 -31 -65 -36 -31 -20 -222
-130 -224 -130 -7 0 -168 -100 -221 -137 -197 -138 -349 -358 -416 -603 -13
-48 -15 -55 -29 -140 -5 -32 -9 -882 -9 -2015 0 -1695 2 -1971 15 -2040 57
-309 215 -556 464 -724 92 -62 466 -281 481 -281 5 0 9 -4 9 -10 0 -5 4 -10
10 -10 5 0 47 -22 92 -49 46 -27 99 -58 118 -68 19 -11 139 -80 265 -153 127
-73 248 -143 270 -156 22 -12 101 -58 176 -101 74 -44 142 -83 150 -87 8 -4
23 -12 34 -19 20 -12 218 -126 285 -165 44 -24 190 -109 210 -122 8 -5 60 -34
115 -66 229 -131 528 -304 730 -422 66 -38 138 -80 160 -92 22 -12 76 -43 120
-69 170 -99 317 -157 455 -177 85 -13 298 -10 370 5 160 34 261 76 479 203 73
43 135 78 138 78 3 0 17 8 31 19 15 10 47 29 72 43 41 23 134 76 170 98 18 11
185 107 455 262 351 202 1108 639 1175 678 80 47 492 285 540 312 19 11 107
62 195 113 88 51 183 105 210 120 67 37 236 147 270 176 211 181 346 427 385
699 5 37 9 899 9 2020 0 2127 3 2016 -56 2195 -77 236 -230 440 -428 569 -66
43 -325 196 -332 196 -2 0 -24 14 -49 30 -24 17 -44 28 -44 24 0 -4 -8 0 -17
8 -10 8 -72 45 -138 83 -66 38 -183 105 -260 150 -77 45 -160 93 -185 107 -25
14 -216 124 -425 245 -209 121 -400 231 -425 245 -25 14 -95 55 -157 91 -62
36 -132 77 -155 90 -46 26 -598 345 -815 470 -72 42 -147 85 -165 95 -18 11
-55 32 -83 49 -122 71 -237 118 -370 149 -89 21 -296 25 -395 8z"/>
</g>
</svg>
